<svg width="119" height="97" viewBox="0 0 119 97" fill="none" xmlns="http://www.w3.org/2000/svg">
<line x1="1" y1="86" x2="1" stroke="#FF4428" stroke-width="2"/>
<line y1="1" x2="78" y2="1" stroke="#FF4428" stroke-width="2"/>
<line y1="85" x2="78" y2="85" stroke="#FF4428" stroke-width="2"/>
<line x1="11.4988" y1="74.0039" x2="11.5012" y2="11.9958" stroke="#FF4428" stroke-width="2"/>
<line x1="12" y1="13" x2="71" y2="13" stroke="#FF4428" stroke-width="2"/>
<line x1="12" y1="73" x2="71" y2="73" stroke="#FF4428" stroke-width="2"/>
<line x1="11.75" y1="46" x2="11.75" y2="39" stroke="#FF4428" stroke-width="2.5"/>
<line x1="70" y1="12" x2="70" y2="24" stroke="#FF4428" stroke-width="2"/>
<line x1="70" y1="62" x2="70" y2="74" stroke="#FF4428" stroke-width="2"/>
<line x1="66" y1="25" x2="74" y2="25" stroke="#FF4428" stroke-width="2"/>
<line x1="66" y1="37" x2="74" y2="37" stroke="#FF4428" stroke-width="2"/>
<line x1="66" y1="61" x2="74" y2="61" stroke="#FF4428" stroke-width="2"/>
<line x1="66.5" y1="24" x2="66.5" y2="37" stroke="#FF4428"/>
<line x1="66.5" y1="49" x2="66.5" y2="62" stroke="#FF4428"/>
<line x1="73.5" y1="24" x2="73.5" y2="37" stroke="#FF4428"/>
<line x1="73.5" y1="49" x2="73.5" y2="62" stroke="#FF4428"/>
<line x1="66" y1="50" x2="74" y2="50" stroke="#FF4428" stroke-width="2"/>
<line x1="71" y1="13.5" x2="118" y2="13.5" stroke="#FF4428"/>
<line x1="71" y1="71.5" x2="118" y2="71.5" stroke="#FF4428"/>
<line x1="79" y1="86" x2="79" y2="72" stroke="#FF4428" stroke-width="2"/>
<line x1="79" y1="14" x2="79" stroke="#FF4428" stroke-width="2"/>
<line x1="118.5" y1="13" x2="118.5" y2="72" stroke="#FF4428"/>
<line x1="13" y1="86" x2="13" y2="97" stroke="#FF4428" stroke-width="2"/>
<line x1="13" y1="96" x2="30" y2="96" stroke="#FF4428" stroke-width="2"/>
<line x1="29" y1="86" x2="29" y2="97" stroke="#FF4428" stroke-width="2"/>
<line x1="70" y1="85" x2="70" y2="96" stroke="#FF4428" stroke-width="2"/>
<line x1="54" y1="96" x2="71" y2="96" stroke="#FF4428" stroke-width="2"/>
<line x1="55" y1="86" x2="55" y2="97" stroke="#FF4428" stroke-width="2"/>
<ellipse cx="39.5" cy="43" rx="26.5" ry="29" fill="#FF4428"/>
<ellipse cx="39.5" cy="44" rx="19.5" ry="22" fill="#1A1A1A"/>
<ellipse cx="39.5" cy="44" rx="16.5" ry="18" fill="#FF4428"/>
<path d="M32.0227 55V31.7273H41.3409C43.053 31.7273 44.4811 31.9811 45.625 32.4886C46.7689 32.9962 47.6288 33.7008 48.2045 34.6023C48.7803 35.4962 49.0682 36.5265 49.0682 37.6932C49.0682 38.6023 48.8864 39.4015 48.5227 40.0909C48.1591 40.7727 47.6591 41.3333 47.0227 41.7727C46.3939 42.2045 45.6742 42.5114 44.8636 42.6932V42.9205C45.75 42.9583 46.5795 43.2083 47.3523 43.6705C48.1326 44.1326 48.7652 44.7803 49.25 45.6136C49.7348 46.4394 49.9773 47.4242 49.9773 48.5682C49.9773 49.803 49.6705 50.9053 49.0568 51.875C48.4508 52.8371 47.553 53.5985 46.3636 54.1591C45.1742 54.7197 43.7083 55 41.9659 55H32.0227ZM36.9432 50.9773H40.9545C42.3258 50.9773 43.3258 50.7159 43.9545 50.1932C44.5833 49.6629 44.8977 48.9583 44.8977 48.0795C44.8977 47.4356 44.7424 46.8674 44.4318 46.375C44.1212 45.8826 43.678 45.4962 43.1023 45.2159C42.5341 44.9356 41.8561 44.7955 41.0682 44.7955H36.9432V50.9773ZM36.9432 41.4659H40.5909C41.2652 41.4659 41.8636 41.3485 42.3864 41.1136C42.9167 40.8712 43.3333 40.5303 43.6364 40.0909C43.947 39.6515 44.1023 39.125 44.1023 38.5114C44.1023 37.6705 43.803 36.9924 43.2045 36.4773C42.6136 35.9621 41.7727 35.7045 40.6818 35.7045H36.9432V41.4659Z" fill="#1A1A1A"/>
<ellipse cx="32" cy="38.5" rx="4" ry="2.5" fill="#1A1A1A"/>
<ellipse cx="32" cy="48.5" rx="4" ry="2.5" fill="#1A1A1A"/>
</svg>
